// Created by Crowbar 0.74
version 1
nodes
  0 "weapon_bone" -1
  1 "weapon_bone_1" 0
  2 "weapon_bone_2" 1
end
skeleton
  time 0
    0 0.000000 0.000000 0.000000 0.000000 0.000000 0.000000
    1 0.357845 0.801234 2.978310 0.000000 0.000000 1.570796
    2 1.167910 0.360538 0.066175 0.000000 0.000000 -1.570796
end
triangles
  phy
    0 -0.715912 -3.790377 -2.405433 0.067806 0.164620 -0.984024 0 0
    0 -0.679011 -2.600279 -2.170621 -0.454784 -0.176595 -0.872918 0 0
    0 -0.188913 -2.546274 -2.701624 -0.973868 -0.226578 -0.015586 0 0
  phy
    0 -0.188913 -2.546274 -2.701624 -0.973868 -0.226578 -0.015586 0 0
    0 -0.679011 -2.600279 -2.170621 -0.454784 -0.176595 -0.872918 0 0
    0 0.064695 3.325510 -1.042068 -0.895361 -0.410651 0.172323 0 0
  phy
    0 -0.679011 -2.600279 -2.170621 -0.454784 -0.176595 -0.872918 0 0
    0 -1.124294 3.444687 1.343138 -0.134764 -0.404380 -0.904608 0 0
    0 0.064695 3.325510 -1.042068 -0.895361 -0.410651 0.172323 0 0
  phy
    0 -0.679011 -2.600279 -2.170621 -0.454784 -0.176595 -0.872918 0 0
    0 -0.715912 -3.790377 -2.405433 0.067806 0.164620 -0.984024 0 0
    0 -1.276093 2.447087 1.383030 -0.200514 -0.048654 -0.978482 0 0
  phy
    0 -1.124294 3.444687 1.343138 -0.134764 -0.404380 -0.904608 0 0
    0 -0.679011 -2.600279 -2.170621 -0.454784 -0.176595 -0.872918 0 0
    0 -1.276093 2.447087 1.383030 -0.200514 -0.048654 -0.978482 0 0
  phy
    0 -0.531113 -4.849474 -2.770744 -0.402520 0.240395 -0.883283 0 0
    0 -0.715912 -3.790377 -2.405433 0.067806 0.164620 -0.984024 0 0
    0 -0.188913 -2.546274 -2.701624 -0.973868 -0.226578 -0.015586 0 0
  phy
    0 -0.531113 -4.849474 -2.770744 -0.402520 0.240395 -0.883283 0 0
    0 -0.188913 -2.546274 -2.701624 -0.973868 -0.226578 -0.015586 0 0
    0 0.023386 -4.912472 -2.949647 -0.911281 0.213906 0.351867 0 0
  phy
    0 -0.191210 -5.365880 -2.076350 -0.168125 0.963004 -0.210613 0 0
    0 -0.531113 -4.849474 -2.770744 -0.402520 0.240395 -0.883283 0 0
    0 0.023386 -4.912472 -2.949647 -0.911281 0.213906 0.351867 0 0
  phy
    0 -0.715912 -3.790377 -2.405433 0.067806 0.164620 -0.984024 0 0
    0 -0.531113 -4.849474 -2.770744 -0.402520 0.240395 -0.883283 0 0
    0 -0.232603 -5.268594 -0.589249 0.341086 0.645582 -0.683289 0 0
  phy
    0 -0.531113 -4.849474 -2.770744 -0.402520 0.240395 -0.883283 0 0
    0 -0.191210 -5.365880 -2.076350 -0.168125 0.963004 -0.210613 0 0
    0 -0.232603 -5.268594 -0.589249 0.341086 0.645582 -0.683289 0 0
  phy
    0 -1.124294 3.444687 1.343138 -0.134764 -0.404380 -0.904608 0 0
    0 -1.120980 2.927160 4.149433 0.059745 -0.256168 -0.964784 0 0
    0 -0.359232 3.347365 14.113434 0.153997 0.159052 -0.975186 0 0
  phy
    0 -1.120980 2.927160 4.149433 0.059745 -0.256168 -0.964784 0 0
    0 -1.124294 3.444687 1.343138 -0.134764 -0.404380 -0.904608 0 0
    0 -1.215380 2.447060 4.149429 0.083462 0.132693 -0.987637 0 0
  phy
    0 -0.359232 3.347365 14.113434 0.153997 0.159052 -0.975186 0 0
    0 -1.120980 2.927160 4.149433 0.059745 -0.256168 -0.964784 0 0
    0 -1.215380 2.447060 4.149429 0.083462 0.132693 -0.987637 0 0
  phy
    0 -0.359232 3.347365 14.113434 0.153997 0.159052 -0.975186 0 0
    0 -0.715912 -3.790377 -2.405433 0.067806 0.164620 -0.984024 0 0
    0 -0.232603 -5.268594 -0.589249 0.341086 0.645582 -0.683289 0 0
  phy
    0 -0.715912 -3.790377 -2.405433 0.067806 0.164620 -0.984024 0 0
    0 -0.359232 3.347365 14.113434 0.153997 0.159052 -0.975186 0 0
    0 -1.215380 2.447060 4.149429 0.083462 0.132693 -0.987637 0 0
  phy
    0 -1.276091 2.447081 1.967930 0.021886 0.067644 -0.997469 0 0
    0 -0.715912 -3.790377 -2.405433 0.067806 0.164620 -0.984024 0 0
    0 -1.215380 2.447060 4.149429 0.083462 0.132693 -0.987637 0 0
  phy
    0 -0.715912 -3.790377 -2.405433 0.067806 0.164620 -0.984024 0 0
    0 -1.276091 2.447081 1.967930 0.021886 0.067644 -0.997469 0 0
    0 -1.276093 2.447087 1.383030 -0.200514 -0.048654 -0.978482 0 0
  phy
    0 0.064695 3.325510 -1.042068 -0.895361 -0.410651 0.172323 0 0
    0 -1.124294 3.444687 1.343138 -0.134764 -0.404380 -0.904608 0 0
    0 -0.308197 4.262994 0.637142 -0.065080 -0.859815 -0.506441 0 0
  phy
    0 -1.276091 2.447081 1.967930 0.021886 0.067644 -0.997469 0 0
    0 -1.124294 3.444687 1.343138 -0.134764 -0.404380 -0.904608 0 0
    0 -1.276093 2.447087 1.383030 -0.200514 -0.048654 -0.978482 0 0
  phy
    0 0.056863 4.396574 13.171641 0.066550 -0.988144 0.138354 0 0
    0 -0.308197 4.262994 0.637142 -0.065080 -0.859815 -0.506441 0 0
    0 -1.124294 3.444687 1.343138 -0.134764 -0.404380 -0.904608 0 0
  phy
    0 -1.124294 3.444687 1.343138 -0.134764 -0.404380 -0.904608 0 0
    0 -0.359232 3.347365 14.113434 0.153997 0.159052 -0.975186 0 0
    0 0.056863 4.396574 13.171641 0.066550 -0.988144 0.138354 0 0
  phy
    0 -1.124294 3.444687 1.343138 -0.134764 -0.404380 -0.904608 0 0
    0 -1.276091 2.447081 1.967930 0.021886 0.067644 -0.997469 0 0
    0 -1.215380 2.447060 4.149429 0.083462 0.132693 -0.987637 0 0
  phy
    0 -0.191210 -5.365880 -2.076350 -0.168125 0.963004 -0.210613 0 0
    0 0.564390 -5.218280 -2.030653 -0.197180 0.681732 0.704529 0 0
    0 -0.232603 -5.268594 -0.589249 0.341086 0.645582 -0.683289 0 0
  phy
    0 -0.232603 -5.268594 -0.589249 0.341086 0.645582 -0.683289 0 0
    0 0.564390 -5.218280 -2.030653 -0.197180 0.681732 0.704529 0 0
    0 0.608996 -5.102492 -0.776252 0.147211 0.267147 0.952345 0 0
  phy
    0 0.564390 -5.218280 -2.030653 -0.197180 0.681732 0.704529 0 0
    0 -0.191210 -5.365880 -2.076350 -0.168125 0.963004 -0.210613 0 0
    0 0.023386 -4.912472 -2.949647 -0.911281 0.213906 0.351867 0 0
  phy
    0 0.762588 -3.790377 -2.405440 -0.269393 -0.025089 0.962703 0 0
    0 0.608996 -5.102492 -0.776252 0.147211 0.267147 0.952345 0 0
    0 0.564390 -5.218280 -2.030653 -0.197180 0.681732 0.704529 0 0
  phy
    0 0.564390 -5.218280 -2.030653 -0.197180 0.681732 0.704529 0 0
    0 0.023386 -4.912472 -2.949647 -0.911281 0.213906 0.351867 0 0
    0 0.762588 -3.790377 -2.405440 -0.269393 -0.025089 0.962703 0 0
  phy
    0 -0.359232 3.347365 14.113434 0.153997 0.159052 -0.975186 0 0
    0 -0.232603 -5.268594 -0.589249 0.341086 0.645582 -0.683289 0 0
    0 0.397268 3.347365 14.113430 0.222082 0.252494 0.941768 0 0
  phy
    0 -0.359232 3.347365 14.113434 0.153997 0.159052 -0.975186 0 0
    0 0.397268 3.347365 14.113430 0.222082 0.252494 0.941768 0 0
    0 0.056863 4.396574 13.171641 0.066550 -0.988144 0.138354 0 0
  phy
    0 0.762588 -3.790377 -2.405440 -0.269393 -0.025089 0.962703 0 0
    0 -0.188913 -2.546274 -2.701624 -0.973868 -0.226578 -0.015586 0 0
    0 0.064695 3.325510 -1.042068 -0.895361 -0.410651 0.172323 0 0
  phy
    0 -0.188913 -2.546274 -2.701624 -0.973868 -0.226578 -0.015586 0 0
    0 0.762588 -3.790377 -2.405440 -0.269393 -0.025089 0.962703 0 0
    0 0.023386 -4.912472 -2.949647 -0.911281 0.213906 0.351867 0 0
  phy
    0 0.056863 4.396574 13.171641 0.066550 -0.988144 0.138354 0 0
    0 0.967509 3.376381 1.967928 0.013653 -0.564750 0.825149 0 0
    0 0.355703 4.262994 0.637139 -0.071377 -0.784657 0.615807 0 0
  phy
    0 0.355703 4.262994 0.637139 -0.071377 -0.784657 0.615807 0 0
    0 -0.308197 4.262994 0.637142 -0.065080 -0.859815 -0.506441 0 0
    0 0.056863 4.396574 13.171641 0.066550 -0.988144 0.138354 0 0
  phy
    0 0.967509 3.376381 1.967928 0.013653 -0.564750 0.825149 0 0
    0 1.256951 2.928444 1.371111 -0.127771 -0.218710 0.967389 0 0
    0 0.355703 4.262994 0.637139 -0.071377 -0.784657 0.615807 0 0
  phy
    0 0.355703 4.262994 0.637139 -0.071377 -0.784657 0.615807 0 0
    0 1.256951 2.928444 1.371111 -0.127771 -0.218710 0.967389 0 0
    0 0.064695 3.325510 -1.042068 -0.895361 -0.410651 0.172323 0 0
  phy
    0 0.064695 3.325510 -1.042068 -0.895361 -0.410651 0.172323 0 0
    0 -0.308197 4.262994 0.637142 -0.065080 -0.859815 -0.506441 0 0
    0 0.355703 4.262994 0.637139 -0.071377 -0.784657 0.615807 0 0
  phy
    0 1.314896 2.368581 3.808213 0.063989 0.097241 0.993202 0 0
    0 0.608996 -5.102492 -0.776252 0.147211 0.267147 0.952345 0 0
    0 0.762588 -3.790377 -2.405440 -0.269393 -0.025089 0.962703 0 0
  phy
    0 0.762588 -3.790377 -2.405440 -0.269393 -0.025089 0.962703 0 0
    0 1.256951 2.928444 1.371111 -0.127771 -0.218710 0.967389 0 0
    0 1.314896 2.368581 3.808213 0.063989 0.097241 0.993202 0 0
  phy
    0 1.314896 2.368581 3.808213 0.063989 0.097241 0.993202 0 0
    0 0.397268 3.347365 14.113430 0.222082 0.252494 0.941768 0 0
    0 0.608996 -5.102492 -0.776252 0.147211 0.267147 0.952345 0 0
  phy
    0 1.256951 2.928444 1.371111 -0.127771 -0.218710 0.967389 0 0
    0 0.397268 3.347365 14.113430 0.222082 0.252494 0.941768 0 0
    0 1.314896 2.368581 3.808213 0.063989 0.097241 0.993202 0 0
  phy
    0 0.064695 3.325510 -1.042068 -0.895361 -0.410651 0.172323 0 0
    0 1.256951 2.928444 1.371111 -0.127771 -0.218710 0.967389 0 0
    0 0.762588 -3.790377 -2.405440 -0.269393 -0.025089 0.962703 0 0
  phy
    0 0.056863 4.396574 13.171641 0.066550 -0.988144 0.138354 0 0
    0 1.256951 2.928444 1.371111 -0.127771 -0.218710 0.967389 0 0
    0 0.967509 3.376381 1.967928 0.013653 -0.564750 0.825149 0 0
  phy
    0 0.056863 4.396574 13.171641 0.066550 -0.988144 0.138354 0 0
    0 0.397268 3.347365 14.113430 0.222082 0.252494 0.941768 0 0
    0 1.256951 2.928444 1.371111 -0.127771 -0.218710 0.967389 0 0
  phy
    0 -0.232603 -5.268594 -0.589249 0.341086 0.645582 -0.683289 0 0
    0 0.608996 -5.102492 -0.776252 0.147211 0.267147 0.952345 0 0
    0 0.397268 3.347365 14.113430 0.222082 0.252494 0.941768 0 0
end
