{
  "accessors": [
    {
      "bufferView": 0,
      "componentType": 5126,
      "count": 3795,
      "max": [
        0.16203583776950836,
        0.022884946316480637,
        0.0262439101934433
      ],
      "min": [
        -0.10159499943256378,
        -0.022884000092744827,
        -0.1766120046377182
      ],
      "type": "VEC3"
    },
    {
      "bufferView": 1,
      "componentType": 5125,
      "count": 7056,
      "type": "SCALAR"
    },
    {
      "bufferView": 2,
      "componentType": 5126,
      "count": 3795,
      "type": "VEC3"
    },
    {
      "bufferView": 3,
      "componentType": 5126,
      "count": 3795,
      "type": "VEC4"
    },
    {
      "bufferView": 4,
      "componentType": 5126,
      "count": 3795,
      "type": "VEC2"
    }
  ],
  "asset": {
    "version": "2.0"
  },
  "bufferViews": [
    {
      "buffer": 0,
      "byteLength": 45540,
      "target": 34962
    },
    {
      "buffer": 1,
      "byteLength": 28224,
      "target": 34963
    },
    {
      "buffer": 2,
      "byteLength": 45540,
      "target": 34962
    },
    {
      "buffer": 3,
      "byteLength": 60720,
      "target": 34962
    },
    {
      "buffer": 4,
      "byteLength": 30360,
      "target": 34962
    }
  ],
  "buffers": [
    {
      "byteLength": 45540,
      "uri": "data:application/octet-stream;base64,"
    },
    {
      "byteLength": 28224,
      "uri": "data:application/octet-stream;base64,"
    },
    {
      "byteLength": 45540,
      "uri": "data:application/octet-stream;base64,"
    },
    {
      "byteLength": 60720,
      "uri": "data:application/octet-stream;base64,"
    },
    {
      "byteLength": 30360,
      "uri": "data:application/octet-stream;base64,"
    }
  ],
  "materials": [
    {}
  ],
  "meshes": [
    {
      "primitives": [
        {
          "attributes": {
            "NORMAL": 2,
            "POSITION": 0,
            "TANGENT": 3,
            "TEXCOORD_0": 4
          },
          "indices": 1,
          "material": 0,
          "mode": 5
        }
      ]
    }
  ],
  "nodes": [
    {
      "mesh": 0,
      "name": "_gltfNode_0"
    },
    {
      "children": [
        0
      ],
      "name": "GLTF Converted Scene",
      "rotation": [
        -0.7071067811865475,
        0.0,
        0.0,
        0.7071067811865476
      ],
      "scale": [
        1.0,
        1.0,
        1.0
      ],
      "translation": [
        0.0,
        0.0,
        0.0
      ]
    }
  ],
  "scene": 0,
  "scenes": [
    {
      "nodes": [
        1
      ]
    }
  ]
}
